<svg width="21" height="21" viewBox="0 0 21 21" fill="none" xmlns="http://www.w3.org/2000/svg">
<path d="M4.50205 7.58767C4.78407 4.48552 7.38506 2.11027 10.5 2.11029V2.11029V2.11029C13.6149 2.11029 16.2159 4.48555 16.4979 7.5877L17 13.1103H4L4.50205 7.58767Z" fill="white"/>
<path d="M12.5 3.5C12.5 5.433 11.6045 7 10.5 7C9.3954 7 8.49997 5.433 8.49997 3.5C8.49997 1.567 9.3954 0 10.5 0C11.6045 0 12.5 1.567 12.5 3.5Z" fill="white"/>
<path d="M9.70298 5.16205C10.1031 4.63399 10.8969 4.63399 11.297 5.16205L18.3778 14.5063C18.8769 15.1649 18.4071 16.1103 17.5808 16.1103H3.41918C2.59286 16.1103 2.1231 15.1649 2.62217 14.5063L9.70298 5.16205Z" fill="white"/>
<path d="M9 17.1103H12V17.6103C12 18.4387 11.3284 19.1103 10.5 19.1103V19.1103C9.67157 19.1103 9 18.4387 9 17.6103V17.1103Z" fill="white"/>
</svg>
