<svg width="19" height="11" viewBox="0 0 19 11" fill="none" xmlns="http://www.w3.org/2000/svg">
<rect width="19" height="11" fill="#A0A0A0"/>
<rect x="2" y="2" width="1" height="1" fill="#121212"/>
<rect x="4" y="2" width="1" height="1" fill="#121212"/>
<rect x="6" y="2" width="1" height="1" fill="#121212"/>
<rect x="8" y="2" width="1" height="1" fill="#121212"/>
<rect x="10" y="2" width="1" height="1" fill="#121212"/>
<rect x="12" y="2" width="1" height="1" fill="#121212"/>
<rect x="14" y="2" width="1" height="1" fill="#121212"/>
<rect x="16" y="2" width="1" height="1" fill="#121212"/>
<rect x="2" y="4" width="1" height="1" fill="#121212"/>
<rect x="4" y="4" width="1" height="1" fill="#121212"/>
<rect x="6" y="4" width="1" height="1" fill="#121212"/>
<rect x="8" y="4" width="1" height="1" fill="#121212"/>
<rect x="10" y="4" width="1" height="1" fill="#121212"/>
<rect x="12" y="4" width="1" height="1" fill="#121212"/>
<rect x="14" y="4" width="1" height="1" fill="#121212"/>
<rect x="16" y="4" width="1" height="1" fill="#121212"/>
<rect x="2" y="6" width="1" height="1" fill="#121212"/>
<rect x="4" y="6" width="1" height="1" fill="#121212"/>
<rect x="6" y="6" width="1" height="1" fill="#121212"/>
<rect x="4" y="8" width="11" height="1" fill="#121212"/>
<rect x="8" y="6" width="1" height="1" fill="#121212"/>
<rect x="10" y="6" width="1" height="1" fill="#121212"/>
<rect x="12" y="6" width="1" height="1" fill="#121212"/>
<rect x="14" y="6" width="1" height="1" fill="#121212"/>
<rect x="16" y="6" width="1" height="1" fill="#121212"/>
</svg>
