<svg width="92" height="19" viewBox="0 0 92 19" fill="none" xmlns="http://www.w3.org/2000/svg">
<path d="M32.23 17.036C31.774 17.036 31.546 16.904 31.546 16.64V11.294L28.486 4.994C28.45 4.934 28.42 4.88 28.396 4.832C28.372 4.772 28.36 4.718 28.36 4.67C28.36 4.466 28.612 4.364 29.116 4.364H29.44C29.62 4.364 29.764 4.382 29.872 4.418C29.992 4.442 30.082 4.514 30.142 4.634L32.41 9.71L34.696 4.616C34.744 4.508 34.834 4.442 34.966 4.418C35.098 4.382 35.248 4.364 35.416 4.364H35.668C36.124 4.376 36.352 4.478 36.352 4.67C36.352 4.718 36.34 4.772 36.316 4.832C36.304 4.88 36.28 4.934 36.244 4.994L33.166 11.348V16.64C33.166 16.76 33.112 16.856 33.004 16.928C32.896 17 32.722 17.036 32.482 17.036H32.23ZM38.9041 17.108C37.7761 17.108 36.9121 16.7 36.3121 15.884C35.7241 15.068 35.4301 13.886 35.4301 12.338C35.4301 10.778 35.7241 9.578 36.3121 8.738C36.9121 7.898 37.7761 7.478 38.9041 7.478C40.0201 7.478 40.8661 7.898 41.4421 8.738C42.0301 9.566 42.3241 10.766 42.3241 12.338C42.3241 13.898 42.0361 15.086 41.4601 15.902C40.8841 16.706 40.0321 17.108 38.9041 17.108ZM38.8681 15.812C39.5041 15.812 39.9721 15.53 40.2721 14.966C40.5841 14.39 40.7401 13.502 40.7401 12.302C40.7401 11.102 40.5841 10.214 40.2721 9.638C39.9721 9.062 39.5041 8.774 38.8681 8.774C38.2321 8.774 37.7641 9.062 37.4641 9.638C37.1761 10.202 37.0321 11.09 37.0321 12.302C37.0321 13.502 37.1761 14.39 37.4641 14.966C37.7641 15.53 38.2321 15.812 38.8681 15.812ZM45.6462 17.126C44.9022 17.126 44.3262 16.898 43.9182 16.442C43.5102 15.974 43.3062 15.332 43.3062 14.516V7.964C43.3062 7.844 43.3602 7.748 43.4682 7.676C43.5762 7.604 43.7502 7.568 43.9902 7.568H44.1702C44.4102 7.568 44.5842 7.604 44.6922 7.676C44.8002 7.748 44.8542 7.844 44.8542 7.964V14.282C44.8542 14.774 44.9622 15.152 45.1782 15.416C45.3942 15.68 45.7122 15.812 46.1322 15.812C46.4802 15.812 46.7982 15.698 47.0862 15.47C47.3742 15.23 47.6142 14.924 47.8062 14.552V7.964C47.8062 7.7 48.0342 7.568 48.4902 7.568H48.6702C49.1262 7.568 49.3542 7.7 49.3542 7.964V14.318C49.3542 14.81 49.3662 15.218 49.3902 15.542C49.4262 15.866 49.4562 16.118 49.4802 16.298C49.5162 16.466 49.5342 16.568 49.5342 16.604C49.5342 16.688 49.4862 16.754 49.3902 16.802C49.3062 16.85 49.2042 16.892 49.0842 16.928C48.9642 16.952 48.8442 16.97 48.7242 16.982C48.6162 16.994 48.5382 17 48.4902 17C48.2622 17 48.1182 16.874 48.0582 16.622C48.0102 16.358 47.9622 16.076 47.9142 15.776C47.6502 16.196 47.3202 16.526 46.9242 16.766C46.5282 17.006 46.1022 17.126 45.6462 17.126ZM53.6638 17.036C53.4238 17.036 53.2498 17 53.1418 16.928C53.0338 16.856 52.9798 16.76 52.9798 16.64V5.768H50.3878C50.1598 5.768 50.0458 5.588 50.0458 5.228V4.94C50.0458 4.58 50.1598 4.4 50.3878 4.4H57.1558C57.3958 4.4 57.5158 4.58 57.5158 4.94V5.228C57.5158 5.588 57.3958 5.768 57.1558 5.768H54.5998V16.64C54.5998 16.76 54.5458 16.856 54.4378 16.928C54.3298 17 54.1558 17.036 53.9158 17.036H53.6638ZM59.6581 17.126C58.9141 17.126 58.3381 16.898 57.9301 16.442C57.5221 15.974 57.3181 15.332 57.3181 14.516V7.964C57.3181 7.844 57.3721 7.748 57.4801 7.676C57.5881 7.604 57.7621 7.568 58.0021 7.568H58.1821C58.4221 7.568 58.5961 7.604 58.7041 7.676C58.8121 7.748 58.8661 7.844 58.8661 7.964V14.282C58.8661 14.774 58.9741 15.152 59.1901 15.416C59.4061 15.68 59.7241 15.812 60.1441 15.812C60.4921 15.812 60.8101 15.698 61.0981 15.47C61.3861 15.23 61.6261 14.924 61.8181 14.552V7.964C61.8181 7.7 62.0461 7.568 62.5021 7.568H62.6821C63.1381 7.568 63.3661 7.7 63.3661 7.964V14.318C63.3661 14.81 63.3781 15.218 63.4021 15.542C63.4381 15.866 63.4681 16.118 63.4921 16.298C63.5281 16.466 63.5461 16.568 63.5461 16.604C63.5461 16.688 63.4981 16.754 63.4021 16.802C63.3181 16.85 63.2161 16.892 63.0961 16.928C62.9761 16.952 62.8561 16.97 62.7361 16.982C62.6281 16.994 62.5501 17 62.5021 17C62.2741 17 62.1301 16.874 62.0701 16.622C62.0221 16.358 61.9741 16.076 61.9261 15.776C61.6621 16.196 61.3321 16.526 60.9361 16.766C60.5401 17.006 60.1141 17.126 59.6581 17.126ZM68.7017 17.108C68.2937 17.108 67.9037 17 67.5317 16.784C67.1597 16.556 66.8297 16.214 66.5417 15.758L66.3617 16.82C66.3257 16.904 66.2597 16.964 66.1637 17C66.0677 17.024 65.9477 17.036 65.8037 17.036H65.6957C65.2997 17.036 65.1017 16.904 65.1017 16.64V3.86C65.1017 3.596 65.3297 3.464 65.7857 3.464H65.9837C66.4277 3.464 66.6497 3.596 66.6497 3.86V8.396C66.8897 8.132 67.1537 7.916 67.4417 7.748C67.7297 7.568 68.1017 7.478 68.5577 7.478C69.4457 7.478 70.1597 7.892 70.6997 8.72C71.2517 9.536 71.5277 10.706 71.5277 12.23C71.5277 13.202 71.4077 14.054 71.1677 14.786C70.9397 15.518 70.6157 16.088 70.1957 16.496C69.7757 16.904 69.2777 17.108 68.7017 17.108ZM68.3237 15.794C68.8397 15.794 69.2297 15.482 69.4937 14.858C69.7697 14.222 69.9077 13.34 69.9077 12.212C69.9077 11.108 69.7637 10.268 69.4757 9.692C69.1997 9.104 68.7677 8.81 68.1797 8.81C67.8917 8.81 67.6157 8.882 67.3517 9.026C67.0877 9.158 66.8537 9.356 66.6497 9.62V14.552C66.8897 14.948 67.1537 15.254 67.4417 15.47C67.7297 15.686 68.0237 15.794 68.3237 15.794ZM75.9093 17.108C74.6373 17.108 73.6893 16.718 73.0653 15.938C72.4533 15.158 72.1473 13.964 72.1473 12.356C72.1473 11.3 72.2793 10.412 72.5433 9.692C72.8073 8.96 73.2033 8.408 73.7313 8.036C74.2593 7.664 74.9133 7.478 75.6933 7.478C76.7373 7.478 77.5233 7.88 78.0513 8.684C78.5793 9.476 78.8433 10.64 78.8433 12.176C78.8433 12.248 78.8073 12.344 78.7353 12.464C78.6753 12.584 78.5973 12.692 78.5013 12.788C78.4053 12.872 78.3213 12.914 78.2493 12.914H73.7673C73.8273 13.91 74.0133 14.642 74.3253 15.11C74.6493 15.578 75.1713 15.812 75.8913 15.812C76.3473 15.812 76.7193 15.752 77.0073 15.632C77.2953 15.5 77.5173 15.374 77.6733 15.254C77.8293 15.122 77.9373 15.056 77.9973 15.056C78.0813 15.056 78.1713 15.116 78.2673 15.236C78.3633 15.356 78.4473 15.488 78.5193 15.632C78.5913 15.776 78.6273 15.884 78.6273 15.956C78.6273 16.064 78.5553 16.184 78.4113 16.316C78.2793 16.448 78.0873 16.574 77.8353 16.694C77.5953 16.814 77.3073 16.916 76.9713 17C76.6473 17.072 76.2933 17.108 75.9093 17.108ZM73.7673 11.618H77.2413C77.2413 10.67 77.1033 9.962 76.8273 9.494C76.5633 9.014 76.1673 8.774 75.6393 8.774C75.0513 8.774 74.6013 9.014 74.2893 9.494C73.9893 9.962 73.8153 10.67 73.7673 11.618Z" fill="white"/>
<path d="M82.06 9C81.8733 9 81.78 8.9 81.78 8.7V2.3C81.78 2.1 81.8733 2 82.06 2H83.79C84.4367 2 84.9133 2.16333 85.22 2.49C85.5267 2.81667 85.68 3.24333 85.68 3.77C85.68 3.99 85.6367 4.20667 85.55 4.42C85.47 4.63333 85.36 4.82 85.22 4.98C85.0867 5.13333 84.94 5.23667 84.78 5.29V5.33C84.84 5.35 84.93 5.39 85.05 5.45C85.1767 5.51 85.3067 5.6 85.44 5.72C85.5733 5.84 85.6867 6.00333 85.78 6.21C85.8733 6.41667 85.92 6.67667 85.92 6.99C85.92 7.45 85.8367 7.83 85.67 8.13C85.51 8.42333 85.27 8.64333 84.95 8.79C84.6367 8.93 84.25 9 83.79 9H82.06ZM82.68 8.24H83.97C84.2967 8.24 84.55 8.12333 84.73 7.89C84.91 7.65667 85 7.34333 85 6.95C85 6.58333 84.9 6.29667 84.7 6.09C84.5 5.88333 84.21 5.78 83.83 5.78H82.68V8.24ZM82.68 5.02H83.72C84.0267 5.02 84.2733 4.90667 84.46 4.68C84.6533 4.45333 84.75 4.17667 84.75 3.85C84.75 3.48333 84.6633 3.21 84.49 3.03C84.3233 2.85 84.06 2.76 83.7 2.76H82.68V5.02ZM87.0906 9.02C86.8373 9.02 86.7106 8.94667 86.7106 8.8V2.3C86.7106 2.1 86.8006 2 86.9806 2H88.4606C88.894 2 89.254 2.06 89.5406 2.18C89.834 2.3 90.0506 2.49 90.1906 2.75C90.3373 3.01 90.4106 3.35 90.4106 3.77C90.4106 4.20333 90.324 4.56 90.1506 4.84C89.984 5.11333 89.764 5.32 89.4906 5.46V5.5C89.6373 5.56667 89.7606 5.71 89.8606 5.93C89.9673 6.15 90.074 6.42333 90.1806 6.75L90.8106 8.72C90.8173 8.74667 90.824 8.77333 90.8306 8.8C90.8373 8.82667 90.8406 8.84667 90.8406 8.86C90.8406 8.96667 90.7106 9.02 90.4506 9.02H90.2806C90.1873 9.02 90.104 9.00667 90.0306 8.98C89.964 8.95333 89.924 8.91333 89.9106 8.86L89.3106 6.9C89.1906 6.51333 89.054 6.25333 88.9006 6.12C88.754 5.98667 88.534 5.92 88.2406 5.92H87.6106V8.8C87.6106 8.94667 87.484 9.02 87.2306 9.02H87.0906ZM87.6006 5.16H88.6106C88.7706 5.16 88.914 5.10333 89.0406 4.99C89.174 4.87667 89.2806 4.72667 89.3606 4.54C89.4406 4.35333 89.4806 4.15 89.4806 3.93C89.4806 3.52333 89.394 3.22667 89.2206 3.04C89.054 2.85333 88.8306 2.76 88.5506 2.76H87.6006V5.16Z" fill="#959595"/>
<rect y="2" width="25" height="17" rx="4" fill="#FF0000"/>
<path d="M15.5 9.13397C16.1667 9.51887 16.1667 10.4811 15.5 10.866L11 13.4641C10.3333 13.849 9.5 13.3679 9.5 12.5981L9.5 7.40192C9.5 6.63212 10.3333 6.151 11 6.5359L15.5 9.13397Z" fill="white"/>
</svg>
